<svg width="88" height="89" viewBox="0 0 88 89" fill="none" xmlns="http://www.w3.org/2000/svg">
<path d="M66.0001 7.76074H22.0001C17.95 7.76074 14.6667 11.044 14.6667 15.0941V73.7607C14.6667 77.8108 17.95 81.0941 22.0001 81.0941H66.0001C70.0502 81.0941 73.3334 77.8108 73.3334 73.7607V15.0941C73.3334 11.044 70.0502 7.76074 66.0001 7.76074Z" stroke="#159AFF" stroke-width="4" stroke-linecap="round" stroke-linejoin="round"/>
<path d="M33 81.0939V66.4272H55V81.0939" stroke="#159AFF" stroke-width="4" stroke-linecap="round" stroke-linejoin="round"/>
<path d="M29.3333 22.4272H29.3679" stroke="#159AFF" stroke-width="4" stroke-linecap="round" stroke-linejoin="round"/>
<path d="M58.6667 22.4272H58.7014" stroke="#159AFF" stroke-width="4" stroke-linecap="round" stroke-linejoin="round"/>
<path d="M44 22.4272H44.0347" stroke="#159AFF" stroke-width="4" stroke-linecap="round" stroke-linejoin="round"/>
<path d="M44 37.0938H44.0347" stroke="#159AFF" stroke-width="4" stroke-linecap="round" stroke-linejoin="round"/>
<path d="M44 51.7607H44.0347" stroke="#159AFF" stroke-width="4" stroke-linecap="round" stroke-linejoin="round"/>
<path d="M58.6667 37.0938H58.7014" stroke="#159AFF" stroke-width="4" stroke-linecap="round" stroke-linejoin="round"/>
<path d="M58.6667 51.7607H58.7014" stroke="#159AFF" stroke-width="4" stroke-linecap="round" stroke-linejoin="round"/>
<path d="M29.3333 37.0938H29.3679" stroke="#159AFF" stroke-width="4" stroke-linecap="round" stroke-linejoin="round"/>
<path d="M29.3333 51.7607H29.3679" stroke="#159AFF" stroke-width="4" stroke-linecap="round" stroke-linejoin="round"/>
</svg>
