<svg width="88" height="89" viewBox="0 0 88 89" fill="none" xmlns="http://www.w3.org/2000/svg">
<path d="M56.8333 7.76074H31.5333C30.0666 7.76074 28.6 8.49408 27.5 9.59408C26.4 10.6941 25.6666 12.1607 25.6666 13.6274V60.5607C25.6666 62.0274 26.4 63.4941 27.5 64.5941C28.6 65.6941 30.0666 66.4274 31.5333 66.4274H67.4666C68.9333 66.4274 70.4 65.6941 71.5 64.5941C72.6 63.4941 73.3333 62.0274 73.3333 60.5607V24.2607L56.8333 7.76074Z" stroke="#159AFF" stroke-width="4" stroke-linecap="round" stroke-linejoin="round"/>
<path d="M11 28.2939V75.2273C11 76.6939 11.7333 78.1606 12.8333 79.2606C13.9333 80.3606 15.4 81.0939 16.8667 81.0939H52.8" stroke="#159AFF" stroke-width="4" stroke-linecap="round" stroke-linejoin="round"/>
<path d="M55 7.76074V26.0941H73.3333" stroke="#159AFF" stroke-width="4" stroke-linecap="round" stroke-linejoin="round"/>
</svg>
