<svg width="88" height="89" viewBox="0 0 88 89" fill="none" xmlns="http://www.w3.org/2000/svg">
<path d="M58.6667 77.4272V70.0939C58.6667 66.2041 57.1215 62.4735 54.3709 59.723C51.6204 56.9725 47.8899 55.4272 44 55.4272H22C18.1102 55.4272 14.3797 56.9725 11.6291 59.723C8.87861 62.4735 7.33337 66.2041 7.33337 70.0939V77.4272" stroke="#159AFF" stroke-width="4" stroke-linecap="round" stroke-linejoin="round"/>
<path d="M33 40.7606C41.1002 40.7606 47.6667 34.1941 47.6667 26.0939C47.6667 17.9937 41.1002 11.4272 33 11.4272C24.8999 11.4272 18.3334 17.9937 18.3334 26.0939C18.3334 34.1941 24.8999 40.7606 33 40.7606Z" stroke="#159AFF" stroke-width="4" stroke-linecap="round" stroke-linejoin="round"/>
<path d="M80.6666 77.4271V70.0938C80.6642 66.8441 79.5826 63.6873 77.5916 61.119C75.6007 58.5506 72.8131 56.7162 69.6666 55.9038" stroke="#159AFF" stroke-width="4" stroke-linecap="round" stroke-linejoin="round"/>
<path d="M58.6666 11.9038C61.8215 12.7116 64.6178 14.5464 66.6146 17.1189C68.6115 19.6915 69.6954 22.8555 69.6954 26.1121C69.6954 29.3688 68.6115 32.5328 66.6146 35.1053C64.6178 37.6779 61.8215 39.5127 58.6666 40.3205" stroke="#159AFF" stroke-width="4" stroke-linecap="round" stroke-linejoin="round"/>
</svg>
